<svg width="28" height="31" viewBox="0 0 28 31" fill="none" xmlns="http://www.w3.org/2000/svg">
<rect x="11.0671" y="25.7694" width="5.03057" height="5.03057" rx="2.51528" fill="#323232"/>
<rect x="11.0671" width="5.03057" height="5.03057" rx="2.51528" fill="#323232"/>
<rect x="22.1345" y="18.9843" width="5.03057" height="5.03057" rx="2.51528" fill="#323232"/>
<rect y="18.9843" width="5.03057" height="5.03057" rx="2.51528" fill="#323232"/>
<rect x="6.33862" y="16.6828" width="3.62201" height="3.62201" rx="1.811" fill="#323232"/>
<rect x="6.33862" y="10.4952" width="3.62201" height="3.62201" rx="1.811" fill="#323232"/>
<rect x="17.2046" y="16.6828" width="3.62201" height="3.62201" rx="1.811" fill="#323232"/>
<rect x="11.7715" y="7.17505" width="3.62201" height="3.62201" rx="1.811" fill="#323232"/>
<rect x="11.7715" y="20.003" width="3.62201" height="3.62201" rx="1.811" fill="#323232"/>
<rect x="17.2046" y="10.4952" width="3.62201" height="3.62201" rx="1.811" fill="#323232"/>
<rect x="11.9475" y="13.7651" width="3.26987" height="3.26987" rx="1.63493" fill="#323232"/>
<rect x="22.1345" y="6.78516" width="5.03057" height="5.03057" rx="2.51528" fill="#323232"/>
<rect y="6.78516" width="5.03057" height="5.03057" rx="2.51528" fill="#323232"/>
</svg>
