<svg width="141" height="22" viewBox="0 0 141 22" fill="none" xmlns="http://www.w3.org/2000/svg">
<path d="M4.32 10.768V18.088C4.32 18.584 4.432 18.944 4.656 19.168C4.896 19.376 5.296 19.48 5.856 19.48H7.536V21.76H5.376C4.144 21.76 3.2 21.472 2.544 20.896C1.888 20.32 1.56 19.384 1.56 18.088V10.768H0V8.536H1.56V5.248H4.32V8.536H7.536V10.768H4.32Z" fill="#323232"/>
<path d="M20.7377 14.824C20.7377 15.32 20.7057 15.768 20.6417 16.168H10.5377C10.6177 17.224 11.0097 18.072 11.7137 18.712C12.4177 19.352 13.2817 19.672 14.3057 19.672C15.7777 19.672 16.8177 19.056 17.4257 17.824H20.3777C19.9777 19.04 19.2497 20.04 18.1937 20.824C17.1537 21.592 15.8577 21.976 14.3057 21.976C13.0417 21.976 11.9057 21.696 10.8977 21.136C9.90569 20.56 9.12169 19.76 8.54569 18.736C7.98569 17.696 7.70569 16.496 7.70569 15.136C7.70569 13.776 7.97769 12.584 8.52169 11.56C9.08169 10.52 9.85769 9.72 10.8497 9.16C11.8577 8.6 13.0097 8.32 14.3057 8.32C15.5537 8.32 16.6657 8.592 17.6417 9.136C18.6177 9.68 19.3777 10.448 19.9217 11.44C20.4657 12.416 20.7377 13.544 20.7377 14.824ZM17.8817 13.96C17.8657 12.952 17.5057 12.144 16.8017 11.536C16.0977 10.928 15.2257 10.624 14.1857 10.624C13.2417 10.624 12.4337 10.928 11.7617 11.536C11.0897 12.128 10.6897 12.936 10.5617 13.96H17.8817Z" fill="#323232"/>
<path d="M28.6622 8.32C29.7022 8.32 30.6302 8.536 31.4462 8.968C32.2782 9.4 32.9262 10.04 33.3902 10.888C33.8542 11.736 34.0862 12.76 34.0862 13.96V21.76H31.3742V14.368C31.3742 13.184 31.0782 12.28 30.4862 11.656C29.8942 11.016 29.0862 10.696 28.0622 10.696C27.0382 10.696 26.2222 11.016 25.6142 11.656C25.0222 12.28 24.7262 13.184 24.7262 14.368V21.76H21.9902V8.536H24.7262V10.048C25.1742 9.504 25.7422 9.08 26.4302 8.776C27.1342 8.472 27.8782 8.32 28.6622 8.32Z" fill="#323232"/>
<path d="M35.2241 15.088C35.2241 13.76 35.4961 12.584 36.0401 11.56C36.6001 10.536 37.3521 9.744 38.2961 9.184C39.2561 8.608 40.3201 8.32 41.4881 8.32C42.3521 8.32 43.2001 8.512 44.0321 8.896C44.8801 9.264 45.5521 9.76 46.0481 10.384V4H48.8081V21.76H46.0481V19.768C45.6001 20.408 44.9761 20.936 44.1761 21.352C43.3921 21.768 42.4881 21.976 41.4641 21.976C40.3121 21.976 39.2561 21.688 38.2961 21.112C37.3521 20.52 36.6001 19.704 36.0401 18.664C35.4961 17.608 35.2241 16.416 35.2241 15.088ZM46.0481 15.136C46.0481 14.224 45.8561 13.432 45.4721 12.76C45.1041 12.088 44.6161 11.576 44.0081 11.224C43.4001 10.872 42.7441 10.696 42.0401 10.696C41.3361 10.696 40.6801 10.872 40.0721 11.224C39.4641 11.56 38.9681 12.064 38.5841 12.736C38.2161 13.392 38.0321 14.176 38.0321 15.088C38.0321 16 38.2161 16.8 38.5841 17.488C38.9681 18.176 39.4641 18.704 40.0721 19.072C40.6961 19.424 41.3521 19.6 42.0401 19.6C42.7441 19.6 43.4001 19.424 44.0081 19.072C44.6161 18.72 45.1041 18.208 45.4721 17.536C45.8561 16.848 46.0481 16.048 46.0481 15.136Z" fill="#323232"/>
<path d="M63.0817 14.824C63.0817 15.32 63.0497 15.768 62.9857 16.168H52.8817C52.9618 17.224 53.3537 18.072 54.0577 18.712C54.7617 19.352 55.6258 19.672 56.6497 19.672C58.1217 19.672 59.1617 19.056 59.7697 17.824H62.7217C62.3217 19.04 61.5938 20.04 60.5378 20.824C59.4977 21.592 58.2018 21.976 56.6497 21.976C55.3857 21.976 54.2497 21.696 53.2417 21.136C52.2497 20.56 51.4657 19.76 50.8897 18.736C50.3297 17.696 50.0497 16.496 50.0497 15.136C50.0497 13.776 50.3218 12.584 50.8657 11.56C51.4258 10.52 52.2017 9.72 53.1937 9.16C54.2017 8.6 55.3537 8.32 56.6497 8.32C57.8978 8.32 59.0097 8.592 59.9857 9.136C60.9617 9.68 61.7217 10.448 62.2657 11.44C62.8097 12.416 63.0817 13.544 63.0817 14.824ZM60.2257 13.96C60.2098 12.952 59.8497 12.144 59.1457 11.536C58.4417 10.928 57.5697 10.624 56.5297 10.624C55.5857 10.624 54.7777 10.928 54.1057 11.536C53.4337 12.128 53.0337 12.936 52.9057 13.96H60.2257Z" fill="#323232"/>
<path d="M67.0703 10.456C67.4703 9.784 67.9983 9.264 68.6543 8.896C69.3262 8.512 70.1182 8.32 71.0303 8.32V11.152H70.3343C69.2623 11.152 68.4462 11.424 67.8862 11.968C67.3422 12.512 67.0703 13.456 67.0703 14.8V21.76H64.3343V8.536H67.0703V10.456Z" fill="#323232"/>
<path d="M88.1132 8.32C89.1532 8.32 90.0812 8.536 90.8972 8.968C91.7292 9.4 92.3772 10.04 92.8412 10.888C93.3212 11.736 93.5612 12.76 93.5612 13.96V21.76H90.8492V14.368C90.8492 13.184 90.5532 12.28 89.9612 11.656C89.3692 11.016 88.5612 10.696 87.5372 10.696C86.5132 10.696 85.6972 11.016 85.0892 11.656C84.4972 12.28 84.2012 13.184 84.2012 14.368V21.76H81.4892V14.368C81.4892 13.184 81.1932 12.28 80.6012 11.656C80.0092 11.016 79.2012 10.696 78.1772 10.696C77.1532 10.696 76.3372 11.016 75.7292 11.656C75.1372 12.28 74.8412 13.184 74.8412 14.368V21.76H72.1052V8.536H74.8412V10.048C75.2892 9.504 75.8572 9.08 76.5452 8.776C77.2332 8.472 77.9692 8.32 78.7532 8.32C79.8092 8.32 80.7532 8.544 81.5852 8.992C82.4172 9.44 83.0572 10.088 83.5052 10.936C83.9052 10.136 84.5292 9.504 85.3772 9.04C86.2252 8.56 87.1372 8.32 88.1132 8.32Z" fill="#323232"/>
<path d="M101.339 21.976C100.091 21.976 98.9627 21.696 97.9547 21.136C96.9467 20.56 96.1547 19.76 95.5787 18.736C95.0027 17.696 94.7147 16.496 94.7147 15.136C94.7147 13.792 95.0107 12.6 95.6027 11.56C96.1947 10.52 97.0027 9.72 98.0267 9.16C99.0507 8.6 100.195 8.32 101.459 8.32C102.723 8.32 103.867 8.6 104.891 9.16C105.915 9.72 106.723 10.52 107.315 11.56C107.907 12.6 108.203 13.792 108.203 15.136C108.203 16.48 107.899 17.672 107.291 18.712C106.683 19.752 105.851 20.56 104.795 21.136C103.755 21.696 102.603 21.976 101.339 21.976ZM101.339 19.6C102.043 19.6 102.699 19.432 103.307 19.096C103.931 18.76 104.435 18.256 104.819 17.584C105.203 16.912 105.395 16.096 105.395 15.136C105.395 14.176 105.211 13.368 104.843 12.712C104.475 12.04 103.987 11.536 103.379 11.2C102.771 10.864 102.115 10.696 101.411 10.696C100.707 10.696 100.051 10.864 99.4427 11.2C98.8507 11.536 98.3787 12.04 98.0267 12.712C97.6747 13.368 97.4987 14.176 97.4987 15.136C97.4987 16.56 97.8587 17.664 98.5787 18.448C99.3147 19.216 100.235 19.6 101.339 19.6Z" fill="#323232"/>
<path d="M112.203 10.456C112.603 9.784 113.131 9.264 113.787 8.896C114.459 8.512 115.251 8.32 116.163 8.32V11.152H115.467C114.395 11.152 113.579 11.424 113.019 11.968C112.475 12.512 112.203 13.456 112.203 14.8V21.76H109.467V8.536H112.203V10.456Z" fill="#323232"/>
<path d="M129.358 14.824C129.358 15.32 129.326 15.768 129.262 16.168H119.158C119.238 17.224 119.63 18.072 120.334 18.712C121.038 19.352 121.902 19.672 122.926 19.672C124.398 19.672 125.438 19.056 126.046 17.824H128.998C128.598 19.04 127.87 20.04 126.814 20.824C125.774 21.592 124.478 21.976 122.926 21.976C121.662 21.976 120.526 21.696 119.518 21.136C118.526 20.56 117.742 19.76 117.166 18.736C116.606 17.696 116.326 16.496 116.326 15.136C116.326 13.776 116.598 12.584 117.142 11.56C117.702 10.52 118.478 9.72 119.47 9.16C120.478 8.6 121.63 8.32 122.926 8.32C124.174 8.32 125.286 8.592 126.262 9.136C127.238 9.68 127.998 10.448 128.542 11.44C129.086 12.416 129.358 13.544 129.358 14.824ZM126.502 13.96C126.486 12.952 126.126 12.144 125.422 11.536C124.718 10.928 123.846 10.624 122.806 10.624C121.862 10.624 121.054 10.928 120.382 11.536C119.71 12.128 119.31 12.936 119.182 13.96H126.502Z" fill="#323232"/>
<path d="M134.601 6.26758V0.896484H136.534L137.657 4.71484H137.682L138.785 0.896484H140.719V6.26758H139.391V3.91406C139.391 3.74479 139.392 3.5625 139.396 3.36719C139.402 3.17188 139.409 2.98796 139.415 2.81543C139.425 2.6429 139.433 2.50618 139.439 2.40527H139.41L138.331 6.26758H136.944L135.851 2.40039H135.812C135.825 2.55339 135.841 2.77962 135.86 3.0791C135.88 3.37533 135.89 3.66178 135.89 3.93848V6.26758H134.601ZM131.285 6.26758V2.08301H129.977V0.896484H134.044V2.08301H132.74V6.26758H131.285Z" fill="#323232"/>
</svg>
